<?xml version="1.0" encoding="UTF-8"?>
<svg width="151px" height="13px" viewBox="0 0 151 13" version="1.1" xmlns="http://www.w3.org/2000/svg" xmlns:xlink="http://www.w3.org/1999/xlink">
    <!-- Generator: Sketch 58 (84663) - https://sketch.com -->
    <title>Group 62</title>
    <desc>Created with Sketch.</desc>
    <g id="Page-1" stroke="none" stroke-width="1" fill="none" fill-rule="evenodd">
        <g id="Group-62" transform="translate(0.000000, -1.000000)" fill-rule="nonzero">
            <g id="Group-2-Copy" transform="translate(90.000000, 1.000000)">
                <g id="1020-logo">
                    <path d="M0.845,5.525 L0,5.525 L0,4.225 L0.91,4.16 L1.105,2.535 L2.6,2.535 L2.6,4.16 L4.095,4.16 L4.095,5.59 L2.665,5.59 L2.665,8.06 C2.665,8.775 2.99,9.035 3.445,9.035 C3.64,9.035 3.835,8.97 4.03,8.905 L4.29,10.205 C3.9,10.335 3.445,10.4 2.925,10.4 C1.43,10.4 0.78,9.425 0.78,7.995 L0.845,5.525 Z" id="Shape" fill="#FFFFFF"></path>
                    <path d="M7.41,3.965 C9.165,3.965 10.01,5.265 10.01,6.89 C10.01,7.15 10.01,7.41 9.945,7.67 L6.305,7.67 C6.435,8.58 7.085,9.035 7.93,9.035 C8.385,9.035 8.84,8.905 9.23,8.645 L9.815,9.75 C9.165,10.205 8.385,10.4 7.67,10.465 C5.915,10.4 4.55,9.23 4.55,7.215 C4.55,5.2 5.98,3.965 7.41,3.965 Z M8.515,6.565 C8.515,5.85 8.19,5.395 7.475,5.395 C6.89,5.395 6.435,5.785 6.305,6.565 L8.515,6.565 Z" id="Shape" fill="#FFFFFF"></path>
                    <path d="M10.985,4.16 L12.48,4.16 L12.61,4.94 L12.675,4.94 C13.195,4.42 13.78,4.03 14.625,4.03 C15.99,4.03 16.51,4.94 16.51,6.5 L16.51,10.335 L14.69,10.335 L14.69,6.76 C14.69,5.85 14.43,5.59 13.91,5.59 C13.455,5.59 13.195,5.785 12.805,6.175 L12.805,10.335 L10.985,10.335 L10.985,4.16 Z" id="Shape" fill="#FFFFFF"></path>
                    <path d="M18.005,5.525 L17.16,5.525 L17.16,4.225 L18.07,4.16 L18.265,2.535 L19.76,2.535 L19.76,4.16 L21.255,4.16 L21.255,5.59 L19.76,5.59 L19.76,8.06 C19.76,8.775 20.085,9.035 20.54,9.035 C20.735,9.035 20.93,8.97 21.125,8.905 L21.385,10.205 C20.93,10.335 20.475,10.4 20.02,10.4 C18.525,10.4 17.875,9.425 17.875,7.995 L18.005,5.525 Z" id="Shape" fill="#FFFFFF"></path>
                    <path d="M21.645,4.16 L23.465,4.16 L24.05,7.02 C24.18,7.605 24.245,8.19 24.31,8.84 L24.375,8.84 C24.505,8.19 24.57,7.605 24.765,7.02 L25.415,4.16 L26.975,4.16 L27.69,7.02 C27.82,7.605 27.95,8.19 28.08,8.84 L28.145,8.84 C28.275,8.19 28.34,7.605 28.405,7.02 L28.99,4.16 L30.68,4.16 L29.185,10.27 L27.04,10.27 L26.52,7.8 C26.39,7.215 26.325,6.695 26.195,5.98 L26.13,5.98 C26,6.63 25.935,7.215 25.805,7.8 L25.285,10.27 L23.205,10.27 L21.645,4.16 Z" id="Shape" fill="#FFFFFF"></path>
                    <path d="M33.93,3.965 C35.685,3.965 36.53,5.265 36.53,6.89 C36.53,7.15 36.53,7.41 36.465,7.67 L32.76,7.67 C32.89,8.58 33.54,9.035 34.385,9.035 C34.84,9.035 35.295,8.905 35.685,8.645 L36.27,9.75 C35.62,10.205 34.84,10.4 34.125,10.465 C32.37,10.465 31.005,9.295 31.005,7.28 C31.005,5.2 32.435,3.965 33.93,3.965 Z M34.97,6.565 C34.97,5.85 34.645,5.395 33.93,5.395 C33.345,5.395 32.89,5.785 32.76,6.565 L34.97,6.565 Z" id="Shape" fill="#FFFFFF"></path>
                    <path d="M37.44,4.16 L38.935,4.16 L39.065,4.94 L39.13,4.94 C39.65,4.42 40.235,4.03 41.08,4.03 C42.445,4.03 42.965,4.94 42.965,6.5 L42.965,10.335 L41.145,10.335 L41.145,6.76 C41.145,5.85 40.885,5.59 40.365,5.59 C39.91,5.59 39.65,5.785 39.26,6.175 L39.26,10.335 L37.44,10.335 L37.44,4.16 Z" id="Shape" fill="#FFFFFF"></path>
                    <path d="M44.46,5.525 L43.615,5.525 L43.615,4.225 L44.525,4.16 L44.72,2.535 L46.215,2.535 L46.215,4.16 L47.71,4.16 L47.71,5.59 L46.215,5.59 L46.215,8.06 C46.215,8.775 46.54,9.035 46.995,9.035 C47.19,9.035 47.385,8.97 47.58,8.905 L47.84,10.205 C47.385,10.335 46.93,10.4 46.475,10.4 C44.98,10.4 44.33,9.425 44.33,7.995 L44.46,5.525 Z" id="Shape" fill="#FFFFFF"></path>
                    <path d="M49.205,11.245 C49.79,11.245 50.115,10.92 50.31,10.465 L50.375,10.14 L48.035,4.16 L49.855,4.16 L50.765,6.825 C50.96,7.41 51.09,7.93 51.22,8.58 L51.285,8.58 C51.415,7.995 51.545,7.41 51.675,6.825 L52.39,4.16 L54.145,4.16 L52,10.335 C51.415,11.895 50.765,12.675 49.335,12.675 C49.01,12.675 48.75,12.61 48.49,12.545 L48.815,11.18 C48.945,11.18 49.075,11.245 49.205,11.245" id="Shape" fill="#FFFFFF"></path>
                    <polygon id="Shape" fill="#0088D3" points="55.51 4.745 56.355 3.185 54.73 2.47 55.12 1.365 56.81 1.755 57.005 0 58.175 0 58.37 1.755 60.06 1.365 60.385 2.47 58.825 3.185 59.67 4.745 58.76 5.395 57.59 4.095 56.355 5.395"></polygon>
                </g>
            </g>
            <path d="M0.66,5.324 L0.66,11 L1.353,11 L1.353,7.832 C1.353,7.53133183 1.38599967,7.25450127 1.452,7.0015 C1.51800033,6.74849874 1.61883265,6.52850094 1.7545,6.3415 C1.89016735,6.15449906 2.06616558,6.00783387 2.2825,5.9015 C2.49883441,5.79516614 2.7536652,5.742 3.047,5.742 C3.2670011,5.742 3.45399923,5.7786663 3.608,5.852 C3.76200077,5.9253337 3.88483287,6.02616603 3.9765,6.1545 C4.06816712,6.28283397 4.13416646,6.4331658 4.1745,6.6055 C4.21483353,6.77783419 4.235,6.95933238 4.235,7.15 L4.235,11 L4.928,11 L4.928,7.788 C4.928,7.52399868 4.95183309,7.2691679 4.9995,7.0235 C5.0471669,6.7778321 5.12966608,6.55966762 5.247,6.369 C5.36433392,6.17833238 5.52199901,6.02616723 5.72,5.9125 C5.91800099,5.79883277 6.16733183,5.742 6.468,5.742 C6.96666916,5.742 7.31499901,5.8648321 7.513,6.1105 C7.71100099,6.3561679 7.81,6.71366432 7.81,7.183 L7.81,11 L8.503,11 L8.503,7.15 C8.503,5.82266003 7.87600627,5.159 6.622,5.159 C6.24799813,5.159 5.89600165,5.25066575 5.566,5.434 C5.23599835,5.61733425 4.98666751,5.89599813 4.818,6.27 C4.71533282,5.89599813 4.51183486,5.61733425 4.2075,5.434 C3.90316515,5.25066575 3.56400187,5.159 3.19,5.159 C2.72799769,5.159 2.34850148,5.25799901 2.0515,5.456 C1.75449851,5.65400099 1.51433425,5.92899824 1.331,6.281 L1.298,6.281 L1.298,5.324 L0.66,5.324 Z M9.6939295,7.062 L10.3869295,7.062 C10.4015962,6.59999769 10.5482614,6.26450105 10.8269295,6.0555 C11.1055976,5.84649896 11.4649273,5.742 11.9049295,5.742 C12.1102639,5.742 12.3027619,5.75849984 12.4824295,5.7915 C12.6620971,5.82450017 12.8197622,5.88499956 12.9554295,5.973 C13.0910968,6.06100044 13.1974291,6.18016592 13.2744295,6.3305 C13.3514299,6.48083408 13.3899295,6.67333216 13.3899295,6.908 C13.3899295,7.06200077 13.369763,7.18666619 13.3294295,7.282 C13.289096,7.37733381 13.2322632,7.45249973 13.1589295,7.5075 C13.0855958,7.56250027 12.99393,7.60099989 12.8839295,7.623 C12.8105958,7.63766674 12.7291148,7.65070372 12.6394853,7.6621111 L12.4989295,7.678 C12.1249276,7.72200022 11.7564313,7.7678331 11.3934295,7.8155 C11.0304277,7.8631669 10.7040976,7.94566608 10.4144295,8.063 C10.1247614,8.18033392 9.89193038,8.35083222 9.7159295,8.5745 C9.53992862,8.79816779 9.4519295,9.10799802 9.4519295,9.504 C9.4519295,9.79000143 9.501429,10.037499 9.6004295,10.2465 C9.69942999,10.455501 9.8350953,10.6278327 10.0074295,10.7635 C10.1797637,10.8991673 10.3814283,10.9981664 10.6124295,11.0605 C10.8434307,11.1228336 11.0909282,11.154 11.3549295,11.154 C11.6335976,11.154 11.8737618,11.1283336 12.0754295,11.077 C12.2770972,11.0256664 12.456762,10.9523338 12.6144295,10.857 C12.772097,10.7616662 12.9150955,10.6425007 13.0434295,10.4995 C13.1717635,10.3564993 13.2982622,10.1933342 13.4229295,10.01 L13.4449295,10.01 C13.4449295,10.1566674 13.4540961,10.2904994 13.4724295,10.4115 C13.4907629,10.5325006 13.5292625,10.6369996 13.5879295,10.725 C13.6465965,10.8130004 13.7290956,10.8808331 13.8354295,10.9285 C13.9417634,10.9761669 14.0829286,11 14.2589295,11 L14.4275961,10.9951111 C14.4520405,10.9934815 14.4746516,10.9914445 14.4954295,10.989 L14.7099295,10.956 L14.7099295,10.956 L14.7099295,10.373 C14.6439292,10.4023335 14.5705966,10.417 14.4899295,10.417 C14.2185948,10.417 14.0829295,10.2776681 14.0829295,9.999 L14.0829295,6.985 C14.0829295,6.60366476 14.0205968,6.29383453 13.8959295,6.0555 C13.7712622,5.81716548 13.6099305,5.63200066 13.4119295,5.5 C13.2139285,5.36799934 12.9902641,5.27816691 12.7409295,5.2305 C12.4915949,5.1828331 12.2422641,5.159 11.9929295,5.159 C11.6629278,5.159 11.3622642,5.1956663 11.0909295,5.269 C10.8195948,5.3423337 10.5830972,5.45599923 10.3814295,5.61 C10.1797618,5.76400077 10.0202634,5.96199879 9.9029295,6.204 C9.78559558,6.44600121 9.71592961,6.73199835 9.6939295,7.062 Z M13.3899295,7.898 L13.3899295,8.8 C13.3899295,9.07866806 13.3367634,9.3279989 13.2304295,9.548 C13.1240956,9.7680011 12.9810971,9.95499923 12.8014295,10.109 C12.6217619,10.2630008 12.4109307,10.3803329 12.1689295,10.461 C11.9269283,10.5416671 11.6739308,10.582 11.4099295,10.582 C11.2485954,10.582 11.0909303,10.5563336 10.9369295,10.505 C10.7829287,10.4536664 10.6472634,10.3785005 10.5299295,10.2795 C10.4125956,10.1804995 10.3190965,10.0631673 10.2494295,9.9275 C10.1797625,9.79183266 10.1449295,9.63600088 10.1449295,9.46 C10.1449295,9.18133194 10.2274287,8.96683409 10.3924295,8.8165 C10.5574303,8.66616592 10.7682615,8.55066707 11.0249295,8.47 C11.2174305,8.4094997 11.4253979,8.36034371 11.6488353,8.32253128 L11.8774295,8.2885 C12.1890977,8.24816647 12.4915947,8.20233359 12.7849295,8.151 C12.8802633,8.13633326 12.9902622,8.11066685 13.1149295,8.074 C13.2395968,8.03733315 13.3239293,7.97866707 13.3679295,7.898 L13.3899295,7.898 Z M20.399859,11 L20.399859,3.146 L19.706859,3.146 L19.706859,6.402 L19.684859,6.402 C19.6115253,6.19666564 19.5070263,6.01700077 19.371359,5.863 C19.2356917,5.70899923 19.0798599,5.57883387 18.903859,5.4725 C18.7278581,5.36616614 18.5390267,5.28733359 18.337359,5.236 C18.1356913,5.18466641 17.9285267,5.159 17.715859,5.159 C17.2831902,5.159 16.9073606,5.23966586 16.588359,5.401 C16.2693574,5.56233414 16.0035267,5.78049863 15.790859,6.0555 C15.5781913,6.33050137 15.4205262,6.64949818 15.317859,7.0125 C15.2151918,7.37550181 15.163859,7.75866465 15.163859,8.162 C15.163859,8.56533535 15.2151918,8.94849819 15.317859,9.3115 C15.4205262,9.67450181 15.5781913,9.99349863 15.790859,10.2685 C16.0035267,10.5435014 16.2693574,10.7598325 16.588359,10.9175 C16.9073606,11.0751675 17.2831902,11.154 17.715859,11.154 C17.9211934,11.154 18.128358,11.124667 18.337359,11.066 C18.54636,11.007333 18.7425247,10.9248339 18.925859,10.8185 C19.1091932,10.7121661 19.2723583,10.5820008 19.415359,10.428 C19.5583597,10.2739992 19.6665253,10.1053343 19.739859,9.922 L19.761859,9.922 L19.761859,11 L20.399859,11 Z M15.856859,8.162 C15.856859,7.8686652 15.891692,7.57716812 15.961359,7.2875 C16.031026,6.99783189 16.1410249,6.73933447 16.291359,6.512 C16.4416931,6.28466553 16.6341912,6.09950071 16.868859,5.9565 C17.1035268,5.81349929 17.3858573,5.742 17.715859,5.742 C18.0825275,5.742 18.3923577,5.81349929 18.645359,5.9565 C18.8983603,6.09950071 19.1036915,6.28466553 19.261359,6.512 C19.4190265,6.73933447 19.532692,6.99783189 19.602359,7.2875 C19.672026,7.57716812 19.706859,7.8686652 19.706859,8.162 C19.706859,8.4553348 19.672026,8.74683189 19.602359,9.0365 C19.532692,9.32616812 19.4190265,9.58466553 19.261359,9.812 C19.1036915,10.0393345 18.8983603,10.2244993 18.645359,10.3675 C18.3923577,10.5105007 18.0825275,10.582 17.715859,10.582 C17.3858573,10.582 17.1035268,10.5105007 16.868859,10.3675 C16.6341912,10.2244993 16.4416931,10.0393345 16.291359,9.812 C16.1410249,9.58466553 16.031026,9.32616812 15.961359,9.0365 C15.891692,8.74683189 15.856859,8.4553348 15.856859,8.162 Z M25.7377885,7.766 L22.0637885,7.766 C22.093122,7.50933205 22.1536214,7.25816789 22.2452885,7.0125 C22.3369556,6.7668321 22.4597877,6.55050093 22.6137885,6.3635 C22.7677893,6.17649906 22.9547874,6.02616723 23.1747885,5.9125 C23.3947896,5.79883277 23.6477871,5.742 23.9337885,5.742 C24.2124566,5.742 24.4617874,5.79883277 24.6817885,5.9125 C24.9017896,6.02616723 25.0887877,6.17649906 25.2427885,6.3635 C25.3967893,6.55050093 25.5159547,6.76499879 25.6002885,7.007 C25.6846223,7.24900121 25.7304551,7.50199868 25.7377885,7.766 Z M22.0637885,8.349 L26.4307885,8.349 C26.4454552,7.95299802 26.4087889,7.56250193 26.3207885,7.1775 C26.2327881,6.79249808 26.0879562,6.45150149 25.8862885,6.1545 C25.6846208,5.85749852 25.4224568,5.61733425 25.0997885,5.434 C24.7771202,5.25066575 24.3884574,5.159 23.9337885,5.159 C23.4864529,5.159 23.0996235,5.24516581 22.7732885,5.4175 C22.4469535,5.58983419 22.1811229,5.81716525 21.9757885,6.0995 C21.7704541,6.38183474 21.618289,6.70266487 21.5192885,7.062 C21.420288,7.42133513 21.3707885,7.78799813 21.3707885,8.162 C21.3707885,8.56533535 21.420288,8.94849819 21.5192885,9.3115 C21.618289,9.67450181 21.7704541,9.99349863 21.9757885,10.2685 C22.1811229,10.5435014 22.4469535,10.7598325 22.7732885,10.9175 C23.0996235,11.0751675 23.4864529,11.154 23.9337885,11.154 C24.6524588,11.154 25.2079532,10.9780018 25.6002885,10.626 C25.9926238,10.2739982 26.2621211,9.77533656 26.4087885,9.13 L25.7157885,9.13 C25.6057879,9.5700022 25.4077899,9.92199868 25.1217885,10.186 C24.8357871,10.4500013 24.439791,10.582 23.9337885,10.582 C23.6037868,10.582 23.3214563,10.512334 23.0867885,10.373 C22.8521207,10.233666 22.6577893,10.0576677 22.5037885,9.845 C22.3497877,9.63233227 22.2379555,9.39216801 22.1682885,9.1245 C22.0986215,8.856832 22.0637885,8.59833458 22.0637885,8.349 Z M29.7256475,5.324 L31.5516475,11 L32.3106475,11 L33.6966475,6.226 L33.7186475,6.226 L35.1156475,11 L35.8746475,11 L37.7006475,5.324 L36.9636475,5.324 L35.5116475,10.186 L35.4896475,10.186 L34.1036475,5.324 L33.3226475,5.324 L31.9366475,10.186 L31.9146475,10.186 L30.4626475,5.324 L29.7256475,5.324 Z M38.396577,3.146 L38.396577,4.257 L39.089577,4.257 L39.089577,3.146 L38.396577,3.146 Z M38.396577,5.324 L38.396577,11 L39.089577,11 L39.089577,5.324 L38.396577,5.324 Z M41.4575065,5.324 L41.4575065,3.619 L40.7645065,3.619 L40.7645065,5.324 L39.7745065,5.324 L39.7745065,5.907 L40.7645065,5.907 L40.7645065,9.79 C40.7571731,10.2740024 40.8451722,10.6058324 41.0285065,10.7855 C41.2118407,10.9651676 41.5345042,11.055 41.9965065,11.055 L42.1505065,11.05225 L42.1505065,11.05225 L42.3045065,11.044 C42.4071737,11.0366666 42.5098393,11.033 42.6125065,11.033 L42.6125065,10.45 C42.4145055,10.4720001 42.2165075,10.483 42.0185065,10.483 C41.7691719,10.4683333 41.6133401,10.396834 41.5510065,10.2685 C41.4886729,10.140166 41.4575065,9.96233447 41.4575065,9.735 L41.4575065,5.907 L42.6125065,5.907 L42.6125065,5.324 L41.4575065,5.324 Z M43.539436,3.146 L43.539436,11 L44.232436,11 L44.232436,7.689 C44.2397694,7.41033194 44.2856022,7.15183452 44.369936,6.9135 C44.4542698,6.67516548 44.5716019,6.46983419 44.721936,6.2975 C44.8722701,6.12516581 45.0556016,5.9895005 45.271936,5.8905 C45.4882704,5.7914995 45.7357679,5.742 46.014436,5.742 C46.2931041,5.742 46.5259351,5.78599956 46.712936,5.874 C46.8999369,5.96200044 47.0484354,6.08299923 47.158436,6.237 C47.2684365,6.39100077 47.3454358,6.57249895 47.389436,6.7815 C47.4334362,6.99050105 47.455436,7.21599879 47.455436,7.458 L47.455436,11 L48.148436,11 L48.148436,7.348 C48.148436,7.01066498 48.1154363,6.70633469 48.049436,6.435 C47.9834357,6.16366531 47.8697701,5.93450094 47.708436,5.7475 C47.5471019,5.56049907 47.332604,5.41566718 47.064936,5.313 C46.797268,5.21033282 46.465438,5.159 46.069436,5.159 C45.6661006,5.159 45.295771,5.26349896 44.958436,5.4725 C44.621101,5.68150105 44.3864367,5.95833161 44.254436,6.303 L44.232436,6.303 L44.232436,3.146 L43.539436,3.146 Z M56.393295,7.106 L57.086295,7.106 C57.0056279,6.45333007 56.7544638,5.96566828 56.332795,5.643 C55.9111262,5.32033172 55.3959647,5.159 54.787295,5.159 C54.3546262,5.159 53.9714633,5.23966586 53.637795,5.401 C53.3041267,5.56233414 53.0236295,5.77866531 52.796295,6.05 C52.5689605,6.32133469 52.3966289,6.63849818 52.279295,7.0015 C52.1619611,7.36450182 52.103295,7.75133128 52.103295,8.162 C52.103295,8.57266872 52.1619611,8.95949819 52.279295,9.3225 C52.3966289,9.68550182 52.5689605,10.0026653 52.796295,10.274 C53.0236295,10.5453347 53.3041267,10.7598325 53.637795,10.9175 C53.9714633,11.0751675 54.3546262,11.154 54.787295,11.154 C55.4326316,11.154 55.9606263,10.9615019 56.371295,10.5765 C56.7819637,10.1914981 57.0349612,9.65433678 57.130295,8.965 L56.437295,8.965 C56.4152949,9.19966784 56.3566288,9.41599901 56.261295,9.614 C56.1659612,9.81200099 56.0449624,9.98249928 55.898295,10.1255 C55.7516276,10.2685007 55.5829626,10.3803329 55.392295,10.461 C55.2016274,10.5416671 54.9999627,10.582 54.787295,10.582 C54.4572933,10.582 54.1676296,10.512334 53.918295,10.373 C53.6689604,10.233666 53.4617958,10.0503345 53.296795,9.823 C53.1317942,9.59566553 53.0071288,9.33716812 52.922795,9.0475 C52.8384612,8.75783188 52.796295,8.46266817 52.796295,8.162 C52.796295,7.86133183 52.8384612,7.56616811 52.922795,7.2765 C53.0071288,6.98683189 53.1317942,6.72833447 53.296795,6.501 C53.4617958,6.27366553 53.6689604,6.09033403 53.918295,5.951 C54.1676296,5.81166597 54.4572933,5.742 54.787295,5.742 C55.2492973,5.742 55.608627,5.86299879 55.865295,6.105 C56.1219629,6.34700121 56.2979612,6.68066454 56.393295,7.106 Z M57.9692245,7.062 L58.6622245,7.062 C58.6768912,6.59999769 58.8235564,6.26450105 59.1022245,6.0555 C59.3808926,5.84649896 59.7402223,5.742 60.1802245,5.742 C60.3855589,5.742 60.5780569,5.75849984 60.7577245,5.7915 C60.9373921,5.82450017 61.0950572,5.88499956 61.2307245,5.973 C61.3663918,6.06100044 61.4727241,6.18016592 61.5497245,6.3305 C61.6267249,6.48083408 61.6652245,6.67333216 61.6652245,6.908 C61.6652245,7.06200077 61.645058,7.18666619 61.6047245,7.282 C61.564391,7.37733381 61.5075582,7.45249973 61.4342245,7.5075 C61.3608908,7.56250027 61.269225,7.60099989 61.1592245,7.623 C61.0858908,7.63766674 61.0044098,7.65070372 60.9147803,7.6621111 L60.7742245,7.678 C60.4002226,7.72200022 60.0317263,7.7678331 59.6687245,7.8155 C59.3057227,7.8631669 58.9793926,7.94566608 58.6897245,8.063 C58.4000564,8.18033392 58.1672254,8.35083222 57.9912245,8.5745 C57.8152236,8.79816779 57.7272245,9.10799802 57.7272245,9.504 C57.7272245,9.79000143 57.776724,10.037499 57.8757245,10.2465 C57.974725,10.455501 58.1103903,10.6278327 58.2827245,10.7635 C58.4550587,10.8991673 58.6567233,10.9981664 58.8877245,11.0605 C59.1187257,11.1228336 59.3662232,11.154 59.6302245,11.154 C59.9088926,11.154 60.1490568,11.1283336 60.3507245,11.077 C60.5523922,11.0256664 60.732057,10.9523338 60.8897245,10.857 C61.047392,10.7616662 61.1903905,10.6425007 61.3187245,10.4995 C61.4470585,10.3564993 61.5735572,10.1933342 61.6982245,10.01 L61.7202245,10.01 C61.7202245,10.1566674 61.7293911,10.2904994 61.7477245,10.4115 C61.7660579,10.5325006 61.8045575,10.6369996 61.8632245,10.725 C61.9218915,10.8130004 62.0043906,10.8808331 62.1107245,10.9285 C62.2170584,10.9761669 62.3582236,11 62.5342245,11 L62.7028911,10.9951111 C62.7273355,10.9934815 62.7499466,10.9914445 62.7707245,10.989 C62.8330581,10.9816666 62.9045574,10.9706667 62.9852245,10.956 L62.9852245,10.373 C62.9192242,10.4023335 62.8458916,10.417 62.7652245,10.417 C62.4938898,10.417 62.3582245,10.2776681 62.3582245,9.999 L62.3582245,6.985 C62.3582245,6.60366476 62.2958918,6.29383453 62.1712245,6.0555 C62.0465572,5.81716548 61.8852255,5.63200066 61.6872245,5.5 C61.4892235,5.36799934 61.2655591,5.27816691 61.0162245,5.2305 C60.7668899,5.1828331 60.5175591,5.159 60.2682245,5.159 C59.9382228,5.159 59.6375592,5.1956663 59.3662245,5.269 C59.0948898,5.3423337 58.8583922,5.45599923 58.6567245,5.61 C58.4550568,5.76400077 58.2955584,5.96199879 58.1782245,6.204 C58.0608906,6.44600121 57.9912246,6.73199835 57.9692245,7.062 Z M61.6652245,7.898 L61.6652245,8.8 C61.6652245,9.07866806 61.6120584,9.3279989 61.5057245,9.548 C61.3993906,9.7680011 61.2563921,9.95499923 61.0767245,10.109 C60.8970569,10.2630008 60.6862257,10.3803329 60.4442245,10.461 C60.2022233,10.5416671 59.9492258,10.582 59.6852245,10.582 C59.5238904,10.582 59.3662253,10.5563336 59.2122245,10.505 C59.0582237,10.4536664 58.9225584,10.3785005 58.8052245,10.2795 C58.6878906,10.1804995 58.5943915,10.0631673 58.5247245,9.9275 C58.4550575,9.79183266 58.4202245,9.63600088 58.4202245,9.46 C58.4202245,9.18133194 58.5027237,8.96683409 58.6677245,8.8165 C58.8327253,8.66616592 59.0435565,8.55066707 59.3002245,8.47 C59.4927255,8.4094997 59.7006929,8.36034371 59.9241303,8.32253128 L60.1527245,8.2885 C60.4643927,8.24816647 60.7668897,8.20233359 61.0602245,8.151 C61.1555583,8.13633326 61.2655572,8.11066685 61.3902245,8.074 C61.5148918,8.03733315 61.5992243,7.97866707 61.6432245,7.898 L61.6652245,7.898 Z M63.681154,5.324 L63.681154,11 L64.374154,11 L64.374154,7.975 C64.374154,7.67433183 64.4254868,7.39750127 64.528154,7.1445 C64.6308212,6.89149874 64.7756531,6.67333425 64.962654,6.49 C65.1496549,6.30666575 65.371486,6.16550049 65.628154,6.0665 C65.8848219,5.96749951 66.1708191,5.92533326 66.486154,5.94 L66.486154,5.247 C65.9728181,5.22499989 65.5309892,5.33866542 65.160654,5.588 C64.7903188,5.83733458 64.5171549,6.19299769 64.341154,6.655 L64.319154,6.655 L64.319154,5.324 L63.681154,5.324 Z M70.9660835,7.766 L67.2920835,7.766 C67.321417,7.50933205 67.3819164,7.25816789 67.4735835,7.0125 C67.5652506,6.7668321 67.6880827,6.55050093 67.8420835,6.3635 C67.9960843,6.17649906 68.1830824,6.02616723 68.4030835,5.9125 C68.6230846,5.79883277 68.8760821,5.742 69.1620835,5.742 C69.4407516,5.742 69.6900824,5.79883277 69.9100835,5.9125 C70.1300846,6.02616723 70.3170827,6.17649906 70.4710835,6.3635 C70.6250843,6.55050093 70.7442497,6.76499879 70.8285835,7.007 C70.9129173,7.24900121 70.9587501,7.50199868 70.9660835,7.766 Z M67.2920835,8.349 L71.6590835,8.349 C71.6737502,7.95299802 71.6370839,7.56250193 71.5490835,7.1775 C71.4610831,6.79249808 71.3162512,6.45150149 71.1145835,6.1545 C70.9129158,5.85749852 70.6507518,5.61733425 70.3280835,5.434 C70.0054152,5.25066575 69.6167524,5.159 69.1620835,5.159 C68.7147479,5.159 68.3279185,5.24516581 68.0015835,5.4175 C67.6752485,5.58983419 67.4094179,5.81716525 67.2040835,6.0995 C66.9987491,6.38183474 66.846584,6.70266487 66.7475835,7.062 C66.648583,7.42133513 66.5990835,7.78799813 66.5990835,8.162 C66.5990835,8.56533535 66.648583,8.94849819 66.7475835,9.3115 C66.846584,9.67450181 66.9987491,9.99349863 67.2040835,10.2685 C67.4094179,10.5435014 67.6752485,10.7598325 68.0015835,10.9175 C68.3279185,11.0751675 68.7147479,11.154 69.1620835,11.154 C69.8807538,11.154 70.4362482,10.9780018 70.8285835,10.626 C71.2209188,10.2739982 71.4904161,9.77533656 71.6370835,9.13 L70.9440835,9.13 C70.8340829,9.5700022 70.6360849,9.92199868 70.3500835,10.186 C70.0640821,10.4500013 69.668086,10.582 69.1620835,10.582 C68.8320818,10.582 68.5497513,10.512334 68.3150835,10.373 C68.0804157,10.233666 67.8860843,10.0576677 67.7320835,9.845 C67.5780827,9.63233227 67.4662505,9.39216801 67.3965835,9.1245 C67.3269165,8.856832 67.2920835,8.59833458 67.2920835,8.349 Z M75.5259425,3.146 L75.5259425,11 L76.1639425,11 L76.1639425,9.922 L76.1859425,9.922 C76.3472766,10.318002 76.6094407,10.6223323 76.9724425,10.835 C77.3354443,11.0476677 77.7479402,11.154 78.2099425,11.154 C78.6426113,11.154 79.0184409,11.0751675 79.3374425,10.9175 C79.6564441,10.7598325 79.9222748,10.5435014 80.1349425,10.2685 C80.3476102,9.99349863 80.5052753,9.67450181 80.6079425,9.3115 C80.7106097,8.94849819 80.7619425,8.56533535 80.7619425,8.162 C80.7619425,7.75866465 80.7106097,7.37550181 80.6079425,7.0125 C80.5052753,6.64949818 80.3476102,6.33050137 80.1349425,6.0555 C79.9222748,5.78049863 79.6564441,5.56233414 79.3374425,5.401 C79.0184409,5.23966586 78.6426113,5.159 78.2099425,5.159 C78.0046081,5.159 77.7992769,5.18466641 77.5939425,5.236 C77.3886081,5.28733359 77.1979434,5.36616614 77.0219425,5.4725 C76.8459416,5.57883387 76.6901098,5.70899923 76.5544425,5.863 C76.4187752,6.01700077 76.3142762,6.19666564 76.2409425,6.402 L76.2189425,6.402 L76.2189425,3.146 L75.5259425,3.146 Z M80.0689425,8.162 C80.0689425,8.4553348 80.0341095,8.74683189 79.9644425,9.0365 C79.8947755,9.32616812 79.7847766,9.58466553 79.6344425,9.812 C79.4841084,10.0393345 79.2916103,10.2244993 79.0569425,10.3675 C78.8222747,10.5105007 78.5399441,10.582 78.2099425,10.582 C77.843274,10.582 77.5334438,10.5105007 77.2804425,10.3675 C77.0274412,10.2244993 76.82211,10.0393345 76.6644425,9.812 C76.506775,9.58466553 76.3931095,9.32616812 76.3234425,9.0365 C76.2537755,8.74683189 76.2189425,8.4553348 76.2189425,8.162 C76.2189425,7.8686652 76.2537755,7.57716812 76.3234425,7.2875 C76.3931095,6.99783189 76.506775,6.73933447 76.6644425,6.512 C76.82211,6.28466553 77.0274412,6.09950071 77.2804425,5.9565 C77.5334438,5.81349929 77.843274,5.742 78.2099425,5.742 C78.5399441,5.742 78.8222747,5.81349929 79.0569425,5.9565 C79.2916103,6.09950071 79.4841084,6.28466553 79.6344425,6.512 C79.7847766,6.73933447 79.8947755,6.99783189 79.9644425,7.2875 C80.0341095,7.57716812 80.0689425,7.8686652 80.0689425,8.162 Z M81.138872,5.324 L81.875872,5.324 L83.745872,10.164 L85.494872,5.324 L86.187872,5.324 L83.723872,11.858 C83.6212048,12.1000012 83.5258724,12.2998325 83.437872,12.4575 C83.3498716,12.6151675 83.2527059,12.7398329 83.146372,12.8315 C83.0400381,12.9231671 82.9153727,12.9891665 82.772372,13.0295 C82.6293713,13.0698335 82.4478731,13.09 82.227872,13.09 L81.903372,13.0735 L81.903372,13.0735 C81.8263716,13.0698333 81.758539,13.0570001 81.699872,13.035 L81.699872,12.452 L81.936372,12.4905 L81.936372,12.4905 C82.0133724,12.5015001 82.0922049,12.507 82.172872,12.507 C82.3268728,12.507 82.4533715,12.4850002 82.552372,12.441 C82.6513725,12.3969998 82.7375383,12.3365004 82.810872,12.2595 C82.8842057,12.1824996 82.9465384,12.0890005 82.997872,11.979 L83.162872,11.616 L83.162872,11.616 L83.404872,10.978 L81.138872,5.324 Z" id="madewithcareby" fill="#FFFFFF"></path>
        </g>
    </g>
</svg>