<?xml version="1.0" encoding="UTF-8"?>
<svg width="17" height="17" viewBox="0 0 17 17" fill="none" xmlns="http://www.w3.org/2000/svg">
<path d="M14.9449 16.9979C13.9068 16.9979 12.8778 16.9972 11.8489 16.9996C11.7806 16.9998 11.7383 16.978 11.6964 16.9172C10.3698 14.9951 9.04141 13.0746 7.71319 11.1538C7.69306 11.1247 7.67159 11.0967 7.64464 11.0598C7.61775 11.0927 7.59556 11.1191 7.57411 11.1462C6.05559 13.0654 4.53684 14.9844 3.0199 16.9051C2.96697 16.9721 2.91442 17.0004 2.83292 17C2.04287 16.9965 1.25281 16.9979 0.462748 16.9979C0.429869 16.9979 0.396991 16.9979 0.335678 16.9979C2.37611 14.4187 4.40043 11.8598 6.42781 9.29706C4.28677 6.20091 2.15064 3.11187 0 0.00183665C0.0545271 0.00183665 0.0837957 0.00183665 0.113064 0.00183665C1.83711 0.00183681 3.56116 0.00232195 5.28521 6.42647e-05C5.35416 -2.59687e-05 5.39547 0.0231225 5.43688 0.0838178C6.6322 1.83549 7.82937 3.58563 9.02633 5.33593C9.04631 5.36515 9.06743 5.39342 9.09332 5.42952C9.12286 5.3935 9.1476 5.36425 9.17144 5.33411C10.5544 3.58532 11.9377 1.83672 13.3192 0.0865307C13.3679 0.0248575 13.4167 -0.000273598 13.4912 2.24432e-06C14.2874 0.00295302 15.0836 0.00183744 15.8798 0.00183805C15.9091 0.00183805 15.9385 0.0018382 15.9954 0.0018382C14.0869 2.41437 12.1953 4.80552 10.2996 7.20182C12.5312 10.4645 14.7584 13.7207 17 16.9979C16.3036 16.9979 15.6288 16.9979 14.9449 16.9979ZM10.5007 12.4193C11.1387 13.3419 11.7771 14.2641 12.4134 15.1881C12.4546 15.2478 12.4959 15.2739 12.5655 15.2732C12.9788 15.2695 13.3922 15.2715 13.8056 15.2712C13.8345 15.2711 13.8634 15.268 13.9076 15.2654C13.8813 15.2234 13.8653 15.1957 13.8475 15.1696C10.7838 10.6889 7.71981 6.20834 4.65722 1.7267C4.61445 1.66411 4.57177 1.63637 4.49876 1.63703C4.05481 1.64105 3.61083 1.63904 3.16686 1.63903C3.1352 1.63903 3.10355 1.63903 3.04567 1.63903C5.53949 5.24496 8.0163 8.82629 10.5007 12.4193Z" fill="black"/>
</svg>



