<svg width="18" height="16" viewBox="0 0 18 16" fill="none" xmlns="http://www.w3.org/2000/svg">
<path d="M18.0001 7.99999C18.0001 8.1989 17.9211 8.38967 17.7804 8.53032C17.6398 8.67097 17.449 8.74999 17.2501 8.74999H2.56041L8.03073 14.2194C8.10041 14.289 8.15569 14.3718 8.1934 14.4628C8.23111 14.5539 8.25052 14.6514 8.25052 14.75C8.25052 14.8485 8.23111 14.9461 8.1934 15.0372C8.15569 15.1282 8.10041 15.2109 8.03073 15.2806C7.96104 15.3503 7.87832 15.4056 7.78727 15.4433C7.69623 15.481 7.59865 15.5004 7.5001 15.5004C7.40156 15.5004 7.30397 15.481 7.21293 15.4433C7.12188 15.4056 7.03916 15.3503 6.96948 15.2806L0.219477 8.53061C0.149744 8.46096 0.0944251 8.37824 0.0566819 8.2872C0.0189387 8.19615 -0.000488281 8.09855 -0.000488281 7.99999C-0.000488281 7.90143 0.0189387 7.80383 0.0566819 7.71278C0.0944251 7.62174 0.149744 7.53902 0.219477 7.46936L6.96948 0.719365C7.11021 0.578634 7.30108 0.499573 7.5001 0.499573C7.69912 0.499573 7.89 0.578634 8.03073 0.719365C8.17146 0.860095 8.25052 1.05097 8.25052 1.24999C8.25052 1.44901 8.17146 1.63988 8.03073 1.78061L2.56041 7.24999H17.2501C17.449 7.24999 17.6398 7.32901 17.7804 7.46966C17.9211 7.61031 18.0001 7.80108 18.0001 7.99999Z" fill="white"/>
</svg>
