<svg width="18" height="16" viewBox="0 0 18 16" fill="none" xmlns="http://www.w3.org/2000/svg">
<path d="M-0.000101089 7.99999C-0.000101089 8.1989 0.0789165 8.38967 0.219568 8.53032C0.36022 8.67097 0.550987 8.74999 0.749899 8.74999H15.4396L9.96927 14.2194C9.89959 14.289 9.84431 14.3718 9.8066 14.4628C9.76889 14.5539 9.74948 14.6514 9.74948 14.75C9.74948 14.8485 9.76889 14.9461 9.8066 15.0372C9.84431 15.1282 9.89959 15.2109 9.96927 15.2806C10.039 15.3503 10.1217 15.4056 10.2127 15.4433C10.3038 15.481 10.4014 15.5004 10.4999 15.5004C10.5984 15.5004 10.696 15.481 10.7871 15.4433C10.8781 15.4056 10.9608 15.3503 11.0305 15.2806L17.7805 8.53061C17.8503 8.46096 17.9056 8.37824 17.9433 8.2872C17.9811 8.19615 18.0005 8.09855 18.0005 7.99999C18.0005 7.90143 17.9811 7.80383 17.9433 7.71278C17.9056 7.62174 17.8503 7.53902 17.7805 7.46936L11.0305 0.719365C10.8898 0.578634 10.6989 0.499573 10.4999 0.499573C10.3009 0.499573 10.11 0.578634 9.96927 0.719365C9.82854 0.860095 9.74948 1.05097 9.74948 1.24999C9.74948 1.44901 9.82854 1.63988 9.96927 1.78061L15.4396 7.24999H0.749899C0.550987 7.24999 0.36022 7.32901 0.219568 7.46966C0.0789165 7.61031 -0.000101089 7.80108 -0.000101089 7.99999Z" fill="white"/>
</svg>
