<?xml version="1.0" encoding="UTF-8"?>
<svg width="17" height="19" viewBox="0 0 17 19" fill="none" xmlns="http://www.w3.org/2000/svg">
<path d="M8.92922 0.0160308C9.99745 0 11.0571 0.00831229 12.1168 0C12.1822 1.21122 12.6304 2.44619 13.5434 3.30117C14.4563 4.17989 15.7447 4.58363 17 4.71841V7.90855C15.826 7.86877 14.644 7.63127 13.5758 7.14085C13.1111 6.93482 12.6787 6.67358 12.255 6.40462C12.247 8.71603 12.2629 11.028 12.2385 13.3317C12.1731 14.4402 11.7982 15.5404 11.1378 16.4506C10.0696 17.9706 8.2193 18.9603 6.31946 18.9918C5.15339 19.0553 3.98793 18.7466 2.99307 18.1766C1.34638 17.2343 0.18826 15.5089 0.0170489 13.6565C0.000539193 13.2605 -0.0074099 12.865 0.00909977 12.4767C0.155852 10.9728 0.922024 9.53182 2.11255 8.55038C3.46574 7.4104 5.35762 6.86417 7.1266 7.18894C7.14311 8.36038 7.0942 9.53241 7.0942 10.7039C6.28706 10.4503 5.34111 10.5216 4.63181 10.9966C4.11817 11.3213 3.72683 11.8201 3.52321 12.3817C3.352 12.7855 3.40092 13.229 3.40887 13.6565C3.60454 14.955 4.89291 16.0475 6.2626 15.9287C7.17552 15.921 8.04809 15.4062 8.52075 14.654C8.67546 14.3927 8.84667 14.1238 8.85523 13.815C8.93655 12.3978 8.90415 10.9888 8.91209 9.5716C8.92004 6.38146 8.90476 3.19845 8.92922 0.0160308Z" fill="black"/>
</svg>
