<?xml version="1.0" standalone="no"?>
<!DOCTYPE svg PUBLIC "-//W3C//DTD SVG 20010904//EN"
 "http://www.w3.org/TR/2001/REC-SVG-20010904/DTD/svg10.dtd">
<svg version="1.0" xmlns="http://www.w3.org/2000/svg"
 width="500.000000pt" height="500.000000pt" viewBox="0 0 500.000000 500.000000"
 preserveAspectRatio="xMidYMid meet">

<g transform="translate(0.000000,500.000000) scale(0.100000,-0.100000)"
fill="#000000" stroke="none">
<path d="M3385 4326 c-16 -7 -53 -44 -81 -82 -28 -38 -98 -132 -154 -209 -57
-77 -127 -171 -155 -210 -68 -91 -75 -106 -75 -155 0 -74 19 -93 248 -256 12
-9 13 -15 6 -25 -6 -8 -70 -94 -142 -191 -149 -202 -159 -208 -209 -139 -49
69 -135 103 -209 82 -35 -10 -41 -8 -69 17 -16 16 -43 34 -58 40 -64 27 -164
5 -209 -45 -16 -17 -24 -18 -67 -10 -59 13 -123 -8 -177 -55 l-33 -29 -25 48
c-14 26 -39 68 -55 93 -25 37 -31 55 -31 100 0 89 5 97 62 110 281 60 427 190
500 446 18 66 22 105 22 234 1 191 -6 230 -39 230 -32 0 -221 -71 -282 -106
-211 -122 -310 -235 -349 -401 -20 -86 -14 -209 17 -313 19 -65 27 -166 14
-178 -2 -3 -29 18 -60 46 -31 28 -72 61 -93 72 -26 15 -47 39 -67 78 -41 77
-132 172 -203 210 -104 55 -224 61 -393 17 -72 -19 -224 -82 -238 -99 -14 -16
22 -67 109 -154 219 -220 435 -259 665 -121 35 22 68 39 73 39 21 0 212 -171
212 -189 0 -12 -198 -1 -269 15 -79 17 -173 15 -243 -6 -57 -17 -135 -81 -194
-160 -65 -86 -137 -232 -138 -280 l-1 -35 65 -8 c135 -16 299 10 403 66 96 50
158 141 193 282 19 75 30 81 117 72 89 -9 129 -31 159 -88 17 -33 23 -51 15
-54 -7 -2 -41 -8 -77 -15 -102 -17 -205 -50 -233 -74 -26 -21 -105 -194 -145
-316 -15 -45 -29 -68 -44 -75 -16 -7 -28 -30 -44 -81 -33 -108 -38 -159 -19
-178 14 -14 15 -25 4 -98 -17 -112 -15 -478 4 -591 11 -73 12 -89 0 -98 -16
-14 -17 -69 -2 -124 34 -131 40 -145 65 -158 19 -10 38 -44 78 -138 69 -166
81 -182 153 -202 69 -20 183 -41 313 -59 148 -20 711 -17 868 5 l123 18 37
-29 c132 -103 350 -164 531 -148 249 22 451 134 572 320 208 317 57 755 -283
820 l-58 11 37 37 c24 25 34 42 29 54 -6 15 -16 16 -79 11 -41 -4 -102 -16
-138 -27 -35 -11 -70 -20 -77 -20 -17 0 22 76 60 117 40 41 32 58 -37 88 -71
32 -80 31 -107 -6 l-23 -31 -12 118 c-9 99 -9 120 3 131 17 18 17 16 -1 105
-21 103 -43 158 -63 158 -12 0 -25 23 -45 82 -44 126 -116 280 -144 306 l-24
22 90 123 c50 67 99 132 109 145 l18 23 120 -87 c65 -48 134 -91 153 -96 54
-15 112 12 158 75 39 54 291 396 370 502 40 53 44 64 40 100 -8 54 -44 85
-101 85 -51 0 -49 1 -176 -170 -51 -69 -124 -167 -162 -217 -38 -51 -76 -93
-84 -93 -16 0 -135 85 -135 97 0 9 24 42 229 317 88 119 132 187 130 200 -7
51 -42 15 -224 -229 -102 -137 -191 -249 -197 -247 -17 5 -157 114 -157 122 0
3 83 118 185 255 102 136 185 251 185 255 0 4 -7 13 -15 20 -12 10 -18 10 -30
0 -7 -6 -96 -121 -197 -256 l-182 -244 -25 16 c-43 27 -81 67 -81 83 0 9 50
84 112 166 205 275 218 294 218 332 0 47 -16 72 -55 89 -41 17 -42 17 -80 0z
m63 -68 c15 -15 16 -28 2 -28 -5 0 -9 5 -7 11 1 6 -4 14 -12 17 -9 3 -11 0 -6
-8 5 -9 4 -11 -4 -6 -6 4 -9 12 -6 17 8 12 19 11 33 -3z m-1032 -193 c-10
-223 -54 -343 -163 -445 -38 -36 -93 -75 -129 -92 -61 -29 -194 -71 -194 -62
0 3 14 37 31 77 31 73 102 184 171 268 41 51 48 76 21 86 -12 5 -33 -11 -77
-59 -56 -60 -83 -102 -171 -262 l-33 -58 -13 87 c-24 162 12 290 112 399 75
83 225 175 374 231 l60 23 8 -41 c5 -23 6 -91 3 -152z m1031 149 c-3 -3 -12
-4 -19 -1 -8 3 -5 6 6 6 11 1 17 -2 13 -5z m-27 -49 c0 -2 -6 -8 -13 -14 -10
-8 -14 -7 -14 2 0 8 6 14 14 14 7 0 13 -1 13 -2z m-60 -79 c0 -2 -8 -10 -17
-17 -16 -13 -17 -12 -4 4 13 16 21 21 21 13z m-120 -46 c-6 -11 -13 -20 -16
-20 -2 0 0 9 6 20 6 11 13 20 16 20 2 0 0 -9 -6 -20z m26 -22 c5 -7 3 -8 -6
-3 -8 5 -11 3 -8 -6 3 -8 14 -13 24 -12 18 1 18 1 -1 -13 -11 -8 -20 -19 -20
-24 0 -6 -4 -10 -10 -9 -12 1 -7 23 6 27 6 3 5 9 -1 18 -7 7 -9 18 -5 24 8 13
12 13 21 -2z m-41 -36 c-2 -9 -4 -19 -4 -21 -1 -2 -8 2 -16 9 -12 10 -13 16
-4 26 14 17 28 9 24 -14z m9 -63 c-3 -5 -10 -7 -15 -3 -5 3 -7 10 -3 15 3 5
10 7 15 3 5 -3 7 -10 3 -15z m-70 3 c3 -5 -1 -9 -9 -9 -8 0 -12 4 -9 9 3 4 7
8 9 8 2 0 6 -4 9 -8z m-23 -31 c-8 -5 -11 -16 -8 -25 5 -13 11 -15 25 -7 25
13 26 -13 1 -35 -13 -12 -19 -12 -25 -3 -4 7 -3 10 3 6 6 -4 17 1 24 10 12 14
11 15 -9 9 -14 -5 -22 -3 -22 4 0 6 -4 9 -9 6 -5 -4 -8 0 -7 6 3 21 16 38 29
38 8 0 7 -3 -2 -9z m-110 -168 c13 -16 12 -17 -3 -4 -17 13 -22 21 -14 21 2 0
10 -8 17 -17z m1066 10 c-4 -3 -1 -13 6 -22 11 -14 10 -14 -5 -2 -16 12 -16
31 -1 31 4 0 3 -3 0 -7z m-2700 -65 c51 -30 123 -100 144 -139 7 -14 -2 -13
-64 6 -102 33 -227 57 -255 50 -17 -4 -22 -12 -20 -28 3 -24 6 -25 163 -61 61
-13 128 -32 149 -41 l39 -16 -34 -21 c-94 -58 -231 -83 -321 -58 -77 22 -193
98 -266 175 -40 41 -72 79 -72 85 0 16 220 81 299 88 108 10 173 -1 238 -40z
m2744 35 c13 -16 12 -17 -3 -4 -10 7 -18 15 -18 17 0 8 8 3 21 -13z m-999 -29
c2 -7 -1 -14 -6 -15 -5 -2 -10 6 -11 19 -2 22 10 19 17 -4z m938 22 c0 -2 -8
-10 -17 -17 -16 -13 -17 -12 -4 4 13 16 21 21 21 13z m-1039 -79 c-6 -8 -7
-18 -3 -22 4 -5 1 -5 -6 -1 -10 6 -10 11 -1 22 6 8 14 14 16 14 3 0 0 -6 -6
-13z m980 -14 c13 -16 12 -17 -3 -4 -17 13 -22 21 -14 21 2 0 10 -8 17 -17z
m-32 -29 c-6 -8 -17 -14 -23 -14 -6 0 -3 5 7 11 9 6 14 15 11 21 -4 7 -2 8 5
4 9 -6 9 -11 0 -22z m-693 -19 c4 -8 9 -13 13 -11 3 2 12 -2 19 -10 7 -8 11
-14 10 -15 -24 -6 -37 -6 -33 1 3 5 -3 13 -12 19 -10 6 -13 11 -8 11 6 0 3 5
-5 10 -10 7 -11 10 -2 10 7 0 15 -7 18 -15z m-105 -42 c7 -10 9 -15 5 -11 -5
4 -16 2 -25 -5 -14 -10 -14 -10 -4 4 7 9 10 19 6 22 -3 4 -4 7 -1 7 3 0 12 -8
19 -17z m807 -15 c-5 -15 -35 -19 -35 -4 0 7 9 13 19 13 11 1 18 -3 16 -9z
m-578 -36 c-6 -2 -8 -8 -5 -12 3 -5 12 -7 19 -4 8 3 16 1 20 -4 8 -13 -32 -8
-46 6 -7 7 -8 12 -4 12 5 0 2 7 -5 17 -13 15 -12 15 9 2 12 -8 18 -15 12 -17z
m-145 -1 c3 -5 0 -13 -6 -17 -7 -4 -9 -3 -5 4 3 5 0 13 -6 15 -9 4 -10 6 -1 6
6 1 14 -3 18 -8z m618 -56 c-3 -9 -8 -14 -10 -11 -3 3 -2 9 2 15 9 16 15 13 8
-4z m-563 -11 c0 -8 -19 -13 -24 -6 -3 5 1 9 9 9 8 0 15 -2 15 -3z m571 -27
c-10 -9 -11 -8 -5 6 3 10 9 15 12 12 3 -3 0 -11 -7 -18z m-534 -1 c0 -8 -6
-12 -15 -9 -11 5 -11 7 0 14 7 5 13 9 14 9 0 0 1 -6 1 -14z m53 -31 c11 -13
10 -14 -4 -9 -9 3 -16 10 -16 15 0 13 6 11 20 -6z m87 -22 c-4 -3 -2 -12 4
-19 9 -11 7 -15 -5 -20 -14 -5 -14 -9 -4 -22 10 -12 8 -12 -14 2 -37 24 -45
48 -12 36 34 -13 39 -13 25 3 -10 12 -6 27 7 27 3 0 2 -3 -1 -7z m298 -3 c4
-6 3 -10 -2 -9 -25 4 -35 -1 -24 -14 8 -10 7 -14 -4 -14 -8 0 -12 4 -9 9 3 4
-1 8 -8 8 -7 1 -2 7 12 15 31 17 28 17 35 5z m-608 -25 c0 -8 -4 -12 -9 -9 -5
3 -6 10 -3 15 9 13 12 11 12 -6z m643 -11 c0 -8 -19 -13 -24 -6 -3 5 1 9 9 9
8 0 15 -2 15 -3z m-649 -21 c13 -16 12 -17 -3 -4 -17 13 -22 21 -14 21 2 0 10
-8 17 -17z m99 -13 c-6 -11 -13 -20 -16 -20 -2 0 0 9 6 20 6 11 13 20 16 20 2
0 0 -9 -6 -20z m-25 -32 c4 -3 2 -9 -3 -12 -5 -3 -15 1 -21 8 -10 11 -9 14 3
12 9 -1 18 -5 21 -8z m-1731 -26 c2 -4 -29 -28 -71 -52 -100 -59 -159 -111
-150 -133 9 -24 33 -21 70 7 59 43 208 128 214 122 11 -11 -36 -142 -66 -183
-36 -49 -72 -76 -138 -102 -63 -25 -244 -46 -296 -34 l-38 8 49 101 c58 118
137 210 214 248 42 21 66 26 129 26 43 0 80 -4 83 -8z m2099 -17 c23 -32 17
-32 -13 0 -13 14 -19 25 -14 25 5 0 17 -12 27 -25z m-539 -10 c-4 -8 0 -23 7
-33 11 -14 11 -15 -1 -4 -22 19 -32 14 -20 -10 10 -20 10 -21 -3 -6 -13 16
-15 16 -32 0 -10 -9 -4 2 14 26 34 44 44 52 35 27z m623 -8 c0 -8 -6 -14 -14
-14 -9 0 -10 4 -2 14 6 7 12 13 14 13 1 0 2 -6 2 -13z m-1244 -8 c12 -6 36
-27 54 -47 l32 -36 36 17 c72 34 143 11 192 -62 l23 -33 -31 -29 c-20 -19 -29
-36 -27 -51 5 -34 37 -35 63 -1 19 23 31 28 68 28 30 0 55 -7 73 -21 31 -23
70 -71 63 -78 -3 -3 -65 -13 -139 -23 -169 -22 -716 -25 -880 -5 -157 19 -180
23 -180 33 0 19 63 79 96 89 48 16 77 7 91 -30 7 -20 18 -30 32 -30 31 0 35
18 16 80 -18 58 -18 59 4 87 47 59 111 76 179 47 l37 -15 30 34 c17 19 39 39
50 45 26 15 90 15 118 1z m664 -73 c-3 -7 0 -20 6 -27 10 -11 9 -11 -5 0 -15
11 -15 41 -1 41 3 0 3 -6 0 -14z m-1092 -345 c19 -2 19 -2 2 -12 -11 -6 -30
-9 -43 -6 -13 2 -24 1 -24 -4 0 -4 14 -9 32 -11 17 -2 33 -9 34 -16 1 -7 0 -8
-3 -2 -2 5 -16 10 -29 10 -14 0 -22 -4 -19 -10 3 -5 2 -10 -4 -10 -12 0 -25
45 -17 58 3 5 16 8 28 7 13 -1 32 -3 43 -4z m808 -19 c-2 -16 1 -21 10 -16 9
6 9 5 0 -7 -13 -16 -15 -79 -1 -79 4 0 8 10 9 23 1 21 1 21 9 -3 10 -30 12
-90 4 -90 -10 0 -31 25 -32 40 -11 84 -16 107 -30 123 -14 15 -13 17 4 18 10
1 3 5 -16 9 l-35 8 40 -1 c35 -2 40 -5 38 -25z m-677 11 c-8 -8 -13 -9 -64
-11 -18 -1 -31 -5 -28 -10 2 -4 -2 -16 -10 -27 -8 -10 -14 -14 -14 -9 0 6 3
14 8 18 4 4 7 13 7 19 0 7 14 15 30 18 43 9 80 10 71 2z m563 3 c-11 -9 -99
-15 -99 -6 0 6 23 10 52 10 28 0 49 -2 47 -4z m-501 -13 c-10 -2 -26 -2 -35 0
-10 3 -2 5 17 5 19 0 27 -2 18 -5z m125 -8 c-18 -13 -33 -11 -33 4 0 5 11 9
25 9 23 0 24 -2 8 -13z m147 6 c-8 -5 -18 -7 -24 -4 -5 4 -7 -1 -3 -10 3 -10
3 -17 -2 -17 -5 0 -11 8 -13 18 -4 14 1 18 26 20 22 2 27 0 16 -7z m267 3 c-3
-3 -12 -4 -19 -1 -8 3 -5 6 6 6 11 1 17 -2 13 -5z m-464 -11 c-7 -2 -19 -2
-25 0 -7 3 -2 5 12 5 14 0 19 -2 13 -5z m410 0 c-7 -2 -21 -2 -30 0 -10 3 -4
5 12 5 17 0 24 -2 18 -5z m107 -44 c0 -15 -8 -33 -17 -40 -15 -11 -16 -11 -5
1 6 8 12 25 11 40 0 23 -1 23 -10 5 l-9 -20 2 20 c2 11 -1 26 -6 33 -7 11 -4
11 13 0 13 -8 21 -23 21 -39z m-593 35 c-3 -3 -12 -4 -19 -1 -8 3 -5 6 6 6 11
1 17 -2 13 -5z m-80 -46 c-3 -7 -5 -2 -5 12 0 14 2 19 5 13 2 -7 2 -19 0 -25z
m40 0 c-3 -8 -6 -5 -6 6 -1 11 2 17 5 13 3 -3 4 -12 1 -19z m20 0 c-3 -8 -6
-5 -6 6 -1 11 2 17 5 13 3 -3 4 -12 1 -19z m-117 -7 c0 -26 -30 -35 -45 -14
-11 15 -13 15 -19 -5 -8 -23 -31 -20 -40 5 -5 11 -1 14 13 10 11 -3 22 0 24 7
3 8 10 8 26 -1 27 -17 34 -16 27 2 -3 8 -1 15 4 15 6 0 10 -9 10 -19z m17 -3
c-3 -8 -6 -5 -6 6 -1 11 2 17 5 13 3 -3 4 -12 1 -19z m20 0 c-3 -8 -6 -5 -6 6
-1 11 2 17 5 13 3 -3 4 -12 1 -19z m-172 2 c-6 -10 29 -50 45 -50 6 0 10 -4
10 -10 0 -5 -4 -10 -10 -10 -5 0 -10 -8 -11 -17 0 -10 -6 0 -14 22 l-13 40 1
-43 c0 -23 -3 -45 -6 -49 -4 -3 -7 8 -7 26 0 19 -4 30 -10 26 -5 -3 -10 1 -10
9 0 8 5 18 10 21 6 4 8 11 5 16 -6 9 2 29 11 29 3 0 3 -4 -1 -10z m110 -128
c-3 -3 -11 0 -18 7 -9 10 -8 11 6 5 10 -3 15 -9 12 -12z m-125 -7 c10 -12 10
-15 -4 -15 -9 0 -16 7 -16 15 0 8 2 15 4 15 2 0 9 -7 16 -15z m37 -7 c-3 -8
-6 -5 -6 6 -1 11 2 17 5 13 3 -3 4 -12 1 -19z m343 12 c8 -5 11 -10 5 -10 -5
0 -17 5 -25 10 -8 5 -10 10 -5 10 6 0 17 -5 25 -10z m403 3 c-7 -2 -19 -2 -25
0 -7 3 -2 5 12 5 14 0 19 -2 13 -5z m-236 -9 c-3 -3 -12 -4 -19 -1 -8 3 -5 6
6 6 11 1 17 -2 13 -5z m284 -9 c-18 -8 -50 -15 -70 -14 l-36 1 44 9 c24 5 46
11 49 14 3 3 15 5 26 5 16 -1 13 -4 -13 -15z m-724 -1 c-3 -3 -12 -4 -19 -1
-8 3 -5 6 6 6 11 1 17 -2 13 -5z m78 -4 c28 -7 28 -8 -12 -9 -23 0 -45 4 -48
9 -7 11 16 11 60 0z m-621 -11 c-3 -5 1 -6 9 -3 7 2 65 -4 128 -15 239 -43
407 -55 759 -55 354 1 529 13 767 55 65 12 133 22 152 23 37 1 41 -5 60 -101
l8 -42 -56 -11 c-31 -6 -74 -15 -96 -20 -70 -16 -335 -49 -474 -60 -171 -13
-549 -13 -717 0 -182 14 -454 51 -454 62 0 5 -4 7 -9 3 -9 -5 -41 0 -128 20
-27 6 -28 20 -7 96 14 48 19 57 40 57 13 0 21 -4 18 -9z m831 1 c-3 -5 -16
-10 -28 -9 -20 1 -20 2 3 9 14 4 26 8 28 9 2 1 0 -3 -3 -9z m195 0 c-14 -4
-34 -8 -45 -8 -16 0 -15 2 5 8 14 4 34 8 45 8 16 0 15 -2 -5 -8z m-637 -302
c7 6 20 6 32 1 18 -9 18 -9 -2 -5 -24 4 -32 -9 -10 -17 6 -2 1 -2 -11 0 -15 2
-21 0 -17 -7 3 -5 2 -10 -3 -10 -5 0 -9 12 -9 28 0 15 2 21 4 14 3 -8 9 -10
16 -4z m107 2 c-8 -5 -24 -9 -35 -9 -16 1 -16 2 5 9 35 11 48 11 30 0z m914
-8 c21 -16 21 -19 8 -32 -14 -13 -15 -12 -9 3 4 11 1 17 -8 17 -8 0 -15 4 -15
9 0 5 -8 12 -17 14 -16 4 -16 5 0 6 11 0 29 -7 41 -17z m-824 -2 c-34 -11 -60
-11 -35 0 11 5 29 8 40 8 16 0 15 -2 -5 -8z m87 4 c-3 -3 -12 -4 -19 -1 -8 3
-5 6 6 6 11 1 17 -2 13 -5z m486 -1 c-7 -2 -19 -2 -25 0 -7 3 -2 5 12 5 14 0
19 -2 13 -5z m44 1 c-3 -3 -12 -4 -19 -1 -8 3 -5 6 6 6 11 1 17 -2 13 -5z
m-462 -22 c-3 -3 -11 0 -18 7 -9 10 -8 11 6 5 10 -3 15 -9 12 -12z m85 6 c0
-10 -9 -9 -35 2 -17 8 -16 8 8 7 15 -1 27 -5 27 -9z m183 5 c3 -5 -14 -9 -37
-9 -30 -1 -36 1 -21 6 26 11 53 12 58 3z m297 -3 c-34 -11 -60 -11 -35 0 11 5
29 8 40 8 16 0 15 -2 -5 -8z m-800 -10 c0 -5 -4 -10 -10 -10 -5 0 -10 5 -10
10 0 6 5 10 10 10 6 0 10 -4 10 -10z m195 0 c13 -6 15 -9 5 -9 -8 0 -22 4 -30
9 -18 12 -2 12 25 0z m373 3 c-10 -2 -26 -2 -35 0 -10 3 -2 5 17 5 19 0 27 -2
18 -5z m89 1 c-3 -3 -12 -4 -19 -1 -8 3 -5 6 6 6 11 1 17 -2 13 -5z m-507 -14
c18 -12 2 -12 -25 0 -13 6 -15 9 -5 9 8 0 22 -4 30 -9z m160 0 c11 -8 7 -9
-15 -4 -37 8 -45 14 -19 14 10 0 26 -5 34 -10z m50 6 c0 -2 -7 -6 -15 -10 -8
-3 -15 -1 -15 4 0 6 7 10 15 10 8 0 15 -2 15 -4z m-467 -21 c-3 -9 -8 -14 -10
-11 -3 3 -2 9 2 15 9 16 15 13 8 -4z m454 -57 c-2 -13 -4 -5 -4 17 -1 22 1 32
4 23 2 -10 2 -28 0 -40z m90 -75 c-2 -16 -4 -3 -4 27 0 30 2 43 4 28 2 -16 2
-40 0 -55z m-567 38 c0 -6 -4 -13 -10 -16 -5 -3 -10 1 -10 9 0 9 5 16 10 16 6
0 10 -4 10 -9z m1664 3 c14 -5 13 -10 -4 -35 -12 -15 -32 -52 -46 -81 l-25
-53 5 56 c4 56 28 119 45 119 5 0 16 -3 25 -6z m-1667 -181 c-2 -16 -4 -5 -4
22 0 28 2 40 4 28 2 -13 2 -35 0 -50z m30 -30 c-3 -10 -5 -2 -5 17 0 19 2 27
5 18 2 -10 2 -26 0 -35z m1470 5 c32 -12 61 -31 73 -49 25 -34 56 -38 65 -8 8
23 106 73 168 84 47 9 47 3 0 -26 -68 -41 -68 -47 4 -101 31 -23 52 -43 46
-45 -7 -3 -45 5 -86 16 -109 31 -113 30 -131 -31 -24 -82 -32 -88 -50 -43 -9
20 -16 46 -16 56 0 9 -7 24 -15 32 -13 13 -24 12 -97 -9 -45 -13 -86 -24 -92
-24 -14 0 23 38 61 61 44 28 42 53 -7 85 -22 15 -40 29 -40 31 0 7 60 -8 117
-29z m-1470 -70 c-3 -8 -6 -5 -6 6 -1 11 2 17 5 13 3 -3 4 -12 1 -19z m-40
-10 c-3 -8 -6 -5 -6 6 -1 11 2 17 5 13 3 -3 4 -12 1 -19z m1068 -24 c-10 -7
-22 -11 -26 -8 -13 7 1 32 19 36 24 5 28 -13 7 -28z m-1056 -41 c1 -7 -3 -13
-9 -13 -5 0 -10 15 -9 33 0 27 2 29 9 12 5 -11 9 -26 9 -32z m1006 37 c-3 -5
-1 -10 6 -10 7 0 10 -3 6 -6 -9 -9 -28 6 -22 17 4 5 8 9 11 9 3 0 2 -4 -1 -10z
m-49 -95 c1 -8 -4 -11 -12 -8 -8 3 -14 0 -14 -6 0 -6 5 -11 11 -11 5 0 7 -5 4
-11 -9 -14 -17 -5 -20 25 -2 19 1 23 13 19 11 -5 13 -3 7 8 -5 8 -4 11 0 6 5
-4 10 -14 11 -22z m-954 -37 c-8 -8 -9 -4 -5 13 4 13 8 18 11 10 2 -7 -1 -18
-6 -23z m9 -40 c-4 -32 -5 -32 -11 -8 -5 19 2 37 16 40 0 0 -2 -15 -5 -32z
m1183 6 c10 -26 7 -40 -14 -64 -11 -13 -25 -42 -31 -64 -6 -23 -15 -52 -18
-66 -14 -46 -81 -34 -81 14 0 43 30 122 60 159 33 39 73 50 84 21z m-1181 -84
c-3 -12 -8 -19 -11 -16 -5 6 5 36 12 36 2 0 2 -9 -1 -20z m837 -5 c0 -8 -2
-15 -4 -15 -2 0 -6 7 -10 15 -3 8 -1 15 4 15 6 0 10 -7 10 -15z m40 5 c-8 -5
-19 -10 -25 -10 -5 0 -3 5 5 10 8 5 20 10 25 10 6 0 3 -5 -5 -10z m-522 -7
c-10 -2 -26 -2 -35 0 -10 3 -2 5 17 5 19 0 27 -2 18 -5z m-643 -48 c259 -40
363 -47 755 -52 l395 -4 6 -77 c3 -42 4 -79 2 -81 -2 -3 -148 -5 -326 -5 -326
0 -549 15 -747 49 -47 8 -98 17 -115 20 -113 18 -100 8 -124 94 -11 43 -21 81
-21 84 0 3 17 1 38 -4 20 -5 82 -16 137 -24z m382 29 c-3 -3 -12 -4 -19 -1 -8
3 -5 6 6 6 11 1 17 -2 13 -5z m531 -11 c-10 -2 -26 -2 -35 0 -10 3 -2 5 17 5
19 0 27 -2 18 -5z m-436 -315 c-5 -19 -7 -20 -10 -5 -3 14 -7 16 -18 6 -9 -7
-14 -8 -14 -1 0 6 -12 13 -27 15 -16 2 -5 5 24 6 48 1 51 0 45 -21z m693 8
c-14 -10 -25 -11 -37 -5 -27 14 -22 19 19 19 34 0 35 -1 18 -14z m-627 -3
c-10 -2 -26 -2 -35 0 -10 3 -2 5 17 5 19 0 27 -2 18 -5z m222 -11 c0 -14 -2
-14 -9 -3 -5 8 -15 11 -23 8 -8 -3 -30 -2 -49 3 -30 6 -27 7 24 8 47 0 57 -2
57 -16z m86 9 c-4 -5 -1 -11 6 -13 8 -3 6 -7 -5 -11 -12 -5 -17 -1 -17 13 0
11 5 20 11 20 5 0 8 -4 5 -9z m102 2 c-15 -2 -42 -2 -60 0 -18 2 -6 4 27 4 33
0 48 -2 33 -4z m-548 -13 c-14 -4 -18 -9 -10 -9 12 -1 12 -3 2 -10 -12 -7 -15
-20 -22 -81 -1 -8 -8 10 -16 40 -13 54 -11 77 5 51 7 -10 10 -9 14 3 4 9 17
16 29 15 22 -1 22 -1 -2 -9z m617 4 c-3 -3 -12 -4 -19 -1 -8 3 -5 6 6 6 11 1
17 -2 13 -5z m87 -3 c3 -4 -6 -6 -19 -3 -14 2 -25 6 -25 8 0 8 39 4 44 -5z
m-378 -13 c-8 -4 -25 -4 -38 1 -20 8 -18 9 15 8 24 -1 32 -4 23 -9z m489 -78
c-3 -5 -1 -10 6 -10 7 0 10 -3 6 -6 -9 -9 -28 6 -22 17 4 5 8 9 11 9 3 0 2 -4
-1 -10z m-378 -57 c-3 -10 -5 -2 -5 17 0 19 2 27 5 18 2 -10 2 -26 0 -35z
m383 15 c0 -7 -5 -20 -11 -28 -8 -12 -9 -10 -4 7 5 19 3 22 -11 16 -12 -4 -15
-3 -10 5 10 16 36 15 36 0z m-366 -53 c-7 -16 -24 -21 -24 -6 0 8 7 13 27 20
1 1 0 -6 -3 -14z m-444 -5 c-13 -8 -13 -10 2 -10 9 0 18 5 20 12 3 7 7 5 11
-6 4 -10 3 -15 -3 -11 -6 3 -10 1 -10 -4 0 -16 -27 -13 -33 3 -6 16 1 26 17
26 6 0 4 -5 -4 -10z m310 -30 c0 -11 -4 -20 -9 -20 -5 0 -7 9 -4 20 3 11 7 20
9 20 2 0 4 -9 4 -20z m213 13 c-7 -2 -19 -2 -25 0 -7 3 -2 5 12 5 14 0 19 -2
13 -5z m257 -5 c0 -10 -19 -9 -45 2 -16 7 -14 9 13 7 17 -1 32 -5 32 -9z
m-336 -13 c-4 -8 -11 -15 -16 -15 -6 0 -5 6 2 15 7 8 14 15 16 15 2 0 1 -7 -2
-15z m-347 -1 c-3 -3 -12 -4 -19 -1 -8 3 -5 6 6 6 11 1 17 -2 13 -5z m46 -1
c-7 -2 -19 -2 -25 0 -7 3 -2 5 12 5 14 0 19 -2 13 -5z m127 -3 c8 -5 11 -10 5
-10 -5 0 -17 5 -25 10 -8 5 -10 10 -5 10 6 0 17 -5 25 -10z"/>
<path d="M2447 2986 c-9 -9 -14 -23 -11 -31 7 -16 32 -27 46 -19 17 11 63 -16
81 -47 18 -32 34 -34 50 -8 13 20 -9 66 -44 91 -37 28 -101 35 -122 14z"/>
<path d="M2234 2916 c-10 -26 4 -48 28 -44 17 2 23 10 23 28 0 18 -6 26 -23
28 -13 2 -25 -3 -28 -12z"/>
</g>
</svg>
